<svg id="visual" viewBox="0 0 900 200" width="900" height="200" xmlns="http://www.w3.org/2000/svg" xmlns:xlink="http://www.w3.org/1999/xlink" version="1.1"><path d="M0 53L8.8 53.3C17.7 53.7 35.3 54.3 53 59.3C70.7 64.3 88.3 73.7 106 78.3C123.7 83 141.3 83 159 79.3C176.7 75.7 194.3 68.3 212 64C229.7 59.7 247.3 58.3 265 60C282.7 61.7 300.3 66.3 318 68.3C335.7 70.3 353.3 69.7 371 71.8C388.7 74 406.3 79 423.8 76.7C441.3 74.3 458.7 64.7 476.2 64.2C493.7 63.7 511.3 72.3 529 77.3C546.7 82.3 564.3 83.7 582 79.7C599.7 75.7 617.3 66.3 635 60.5C652.7 54.7 670.3 52.3 688 56C705.7 59.7 723.3 69.3 741 69.8C758.7 70.3 776.3 61.7 794 57.7C811.7 53.7 829.3 54.3 847 54.7C864.7 55 882.3 55 891.2 55L900 55L900 201L891.2 201C882.3 201 864.7 201 847 201C829.3 201 811.7 201 794 201C776.3 201 758.7 201 741 201C723.3 201 705.7 201 688 201C670.3 201 652.7 201 635 201C617.3 201 599.7 201 582 201C564.3 201 546.7 201 529 201C511.3 201 493.7 201 476.2 201C458.7 201 441.3 201 423.8 201C406.3 201 388.7 201 371 201C353.3 201 335.7 201 318 201C300.3 201 282.7 201 265 201C247.3 201 229.7 201 212 201C194.3 201 176.7 201 159 201C141.3 201 123.7 201 106 201C88.3 201 70.7 201 53 201C35.3 201 17.7 201 8.8 201L0 201Z" fill="#422780"></path><path d="M0 76L8.8 79.8C17.7 83.7 35.3 91.3 53 94.2C70.7 97 88.3 95 106 96.2C123.7 97.3 141.3 101.7 159 103.3C176.7 105 194.3 104 212 100.2C229.7 96.3 247.3 89.7 265 86.7C282.7 83.7 300.3 84.3 318 88.3C335.7 92.3 353.3 99.7 371 103.3C388.7 107 406.3 107 423.8 105.8C441.3 104.7 458.7 102.3 476.2 97.8C493.7 93.3 511.3 86.7 529 83.3C546.7 80 564.3 80 582 82.5C599.7 85 617.3 90 635 94.7C652.7 99.3 670.3 103.7 688 101.8C705.7 100 723.3 92 741 86.7C758.7 81.3 776.3 78.7 794 81C811.7 83.3 829.3 90.7 847 95.3C864.7 100 882.3 102 891.2 103L900 104L900 201L891.2 201C882.3 201 864.7 201 847 201C829.3 201 811.7 201 794 201C776.3 201 758.7 201 741 201C723.3 201 705.7 201 688 201C670.3 201 652.7 201 635 201C617.3 201 599.7 201 582 201C564.3 201 546.7 201 529 201C511.3 201 493.7 201 476.2 201C458.7 201 441.3 201 423.8 201C406.3 201 388.7 201 371 201C353.3 201 335.7 201 318 201C300.3 201 282.7 201 265 201C247.3 201 229.7 201 212 201C194.3 201 176.7 201 159 201C141.3 201 123.7 201 106 201C88.3 201 70.7 201 53 201C35.3 201 17.7 201 8.8 201L0 201Z" fill="#36286f"></path><path d="M0 103L8.8 104.3C17.7 105.7 35.3 108.3 53 108C70.7 107.7 88.3 104.3 106 104.8C123.7 105.3 141.3 109.7 159 112.5C176.7 115.3 194.3 116.7 212 118.8C229.7 121 247.3 124 265 125.7C282.7 127.3 300.3 127.7 318 126.8C335.7 126 353.3 124 371 121.3C388.7 118.7 406.3 115.3 423.8 115C441.3 114.7 458.7 117.3 476.2 120.3C493.7 123.3 511.3 126.7 529 124C546.7 121.3 564.3 112.7 582 110.7C599.7 108.7 617.3 113.3 635 115.5C652.7 117.7 670.3 117.3 688 118.5C705.7 119.7 723.3 122.3 741 120.8C758.7 119.3 776.3 113.7 794 109.8C811.7 106 829.3 104 847 104.5C864.7 105 882.3 108 891.2 109.5L900 111L900 201L891.2 201C882.3 201 864.7 201 847 201C829.3 201 811.7 201 794 201C776.3 201 758.7 201 741 201C723.3 201 705.7 201 688 201C670.3 201 652.7 201 635 201C617.3 201 599.7 201 582 201C564.3 201 546.7 201 529 201C511.3 201 493.7 201 476.2 201C458.7 201 441.3 201 423.8 201C406.3 201 388.7 201 371 201C353.3 201 335.7 201 318 201C300.3 201 282.7 201 265 201C247.3 201 229.7 201 212 201C194.3 201 176.7 201 159 201C141.3 201 123.7 201 106 201C88.3 201 70.7 201 53 201C35.3 201 17.7 201 8.8 201L0 201Z" fill="#2d275e"></path><path d="M0 129L8.8 132.2C17.7 135.3 35.3 141.7 53 144C70.7 146.3 88.3 144.7 106 144.3C123.7 144 141.3 145 159 146.2C176.7 147.3 194.3 148.7 212 149.7C229.7 150.7 247.3 151.3 265 148.5C282.7 145.7 300.3 139.3 318 136.2C335.7 133 353.3 133 371 135.3C388.7 137.7 406.3 142.3 423.8 143.2C441.3 144 458.7 141 476.2 138.2C493.7 135.3 511.3 132.7 529 134.7C546.7 136.7 564.3 143.3 582 144.3C599.7 145.3 617.3 140.7 635 138.8C652.7 137 670.3 138 688 137C705.7 136 723.3 133 741 132.7C758.7 132.3 776.3 134.7 794 135.2C811.7 135.7 829.3 134.3 847 133C864.7 131.7 882.3 130.3 891.2 129.7L900 129L900 201L891.2 201C882.3 201 864.7 201 847 201C829.3 201 811.7 201 794 201C776.3 201 758.7 201 741 201C723.3 201 705.7 201 688 201C670.3 201 652.7 201 635 201C617.3 201 599.7 201 582 201C564.3 201 546.7 201 529 201C511.3 201 493.7 201 476.2 201C458.7 201 441.3 201 423.8 201C406.3 201 388.7 201 371 201C353.3 201 335.7 201 318 201C300.3 201 282.7 201 265 201C247.3 201 229.7 201 212 201C194.3 201 176.7 201 159 201C141.3 201 123.7 201 106 201C88.3 201 70.7 201 53 201C35.3 201 17.7 201 8.8 201L0 201Z" fill="#27254d"></path><path d="M0 171L8.8 170.8C17.7 170.7 35.3 170.3 53 169.5C70.7 168.7 88.3 167.3 106 167C123.7 166.7 141.3 167.3 159 167.3C176.7 167.3 194.3 166.7 212 168C229.7 169.3 247.3 172.7 265 172.7C282.7 172.7 300.3 169.3 318 168.2C335.7 167 353.3 168 371 169.2C388.7 170.3 406.3 171.7 423.8 171C441.3 170.3 458.7 167.7 476.2 165C493.7 162.3 511.3 159.7 529 161.2C546.7 162.7 564.3 168.3 582 170.5C599.7 172.7 617.3 171.3 635 168.8C652.7 166.3 670.3 162.7 688 162.2C705.7 161.7 723.3 164.3 741 165.5C758.7 166.7 776.3 166.3 794 164.7C811.7 163 829.3 160 847 160.7C864.7 161.3 882.3 165.7 891.2 167.8L900 170L900 201L891.2 201C882.3 201 864.7 201 847 201C829.3 201 811.7 201 794 201C776.3 201 758.7 201 741 201C723.3 201 705.7 201 688 201C670.3 201 652.7 201 635 201C617.3 201 599.7 201 582 201C564.3 201 546.7 201 529 201C511.3 201 493.7 201 476.2 201C458.7 201 441.3 201 423.8 201C406.3 201 388.7 201 371 201C353.3 201 335.7 201 318 201C300.3 201 282.7 201 265 201C247.3 201 229.7 201 212 201C194.3 201 176.7 201 159 201C141.3 201 123.7 201 106 201C88.3 201 70.7 201 53 201C35.3 201 17.7 201 8.8 201L0 201Z" fill="#22223b"></path></svg>