<svg id="visual" viewBox="0 0 900 200" width="900" height="200" xmlns="http://www.w3.org/2000/svg" xmlns:xlink="http://www.w3.org/1999/xlink" version="1.1"><path d="M0 85L8.8 82.2C17.7 79.3 35.3 73.7 53 72.3C70.7 71 88.3 74 106 76.7C123.7 79.3 141.3 81.7 159 79.7C176.7 77.7 194.3 71.3 212 70C229.7 68.7 247.3 72.3 265 74.8C282.7 77.3 300.3 78.7 318 75C335.7 71.3 353.3 62.7 371 59.2C388.7 55.7 406.3 57.3 423.8 57.2C441.3 57 458.7 55 476.2 55.7C493.7 56.3 511.3 59.7 529 63.3C546.7 67 564.3 71 582 73.2C599.7 75.3 617.3 75.7 635 76C652.7 76.3 670.3 76.7 688 75.8C705.7 75 723.3 73 741 73C758.7 73 776.3 75 794 76.7C811.7 78.3 829.3 79.7 847 80.5C864.7 81.3 882.3 81.7 891.2 81.8L900 82L900 201L891.2 201C882.3 201 864.7 201 847 201C829.3 201 811.7 201 794 201C776.3 201 758.7 201 741 201C723.3 201 705.7 201 688 201C670.3 201 652.7 201 635 201C617.3 201 599.7 201 582 201C564.3 201 546.7 201 529 201C511.3 201 493.7 201 476.2 201C458.7 201 441.3 201 423.8 201C406.3 201 388.7 201 371 201C353.3 201 335.7 201 318 201C300.3 201 282.7 201 265 201C247.3 201 229.7 201 212 201C194.3 201 176.7 201 159 201C141.3 201 123.7 201 106 201C88.3 201 70.7 201 53 201C35.3 201 17.7 201 8.8 201L0 201Z" fill="#422780"></path><path d="M0 75L8.8 77.8C17.7 80.7 35.3 86.3 53 91.2C70.7 96 88.3 100 106 97.2C123.7 94.3 141.3 84.7 159 84.5C176.7 84.3 194.3 93.7 212 97.8C229.7 102 247.3 101 265 98.3C282.7 95.7 300.3 91.3 318 92.5C335.7 93.7 353.3 100.3 371 101C388.7 101.7 406.3 96.3 423.8 93.5C441.3 90.7 458.7 90.3 476.2 91.2C493.7 92 511.3 94 529 96.8C546.7 99.7 564.3 103.3 582 101.8C599.7 100.3 617.3 93.7 635 91.3C652.7 89 670.3 91 688 93C705.7 95 723.3 97 741 98.2C758.7 99.3 776.3 99.7 794 97C811.7 94.3 829.3 88.7 847 88.2C864.7 87.7 882.3 92.3 891.2 94.7L900 97L900 201L891.2 201C882.3 201 864.7 201 847 201C829.3 201 811.7 201 794 201C776.3 201 758.7 201 741 201C723.3 201 705.7 201 688 201C670.3 201 652.7 201 635 201C617.3 201 599.7 201 582 201C564.3 201 546.7 201 529 201C511.3 201 493.7 201 476.2 201C458.7 201 441.3 201 423.8 201C406.3 201 388.7 201 371 201C353.3 201 335.7 201 318 201C300.3 201 282.7 201 265 201C247.3 201 229.7 201 212 201C194.3 201 176.7 201 159 201C141.3 201 123.7 201 106 201C88.3 201 70.7 201 53 201C35.3 201 17.7 201 8.8 201L0 201Z" fill="#36286f"></path><path d="M0 126L8.8 123.5C17.7 121 35.3 116 53 111.8C70.7 107.7 88.3 104.3 106 105.2C123.7 106 141.3 111 159 112C176.7 113 194.3 110 212 112C229.7 114 247.3 121 265 123.3C282.7 125.7 300.3 123.3 318 119.2C335.7 115 353.3 109 371 107.8C388.7 106.7 406.3 110.3 423.8 110.7C441.3 111 458.7 108 476.2 106C493.7 104 511.3 103 529 107C546.7 111 564.3 120 582 120.3C599.7 120.7 617.3 112.3 635 108C652.7 103.7 670.3 103.3 688 103.8C705.7 104.3 723.3 105.7 741 110C758.7 114.3 776.3 121.7 794 122.5C811.7 123.3 829.3 117.7 847 116.7C864.7 115.7 882.3 119.3 891.2 121.2L900 123L900 201L891.2 201C882.3 201 864.7 201 847 201C829.3 201 811.7 201 794 201C776.3 201 758.7 201 741 201C723.3 201 705.7 201 688 201C670.3 201 652.7 201 635 201C617.3 201 599.7 201 582 201C564.3 201 546.7 201 529 201C511.3 201 493.7 201 476.2 201C458.7 201 441.3 201 423.8 201C406.3 201 388.7 201 371 201C353.3 201 335.7 201 318 201C300.3 201 282.7 201 265 201C247.3 201 229.7 201 212 201C194.3 201 176.7 201 159 201C141.3 201 123.7 201 106 201C88.3 201 70.7 201 53 201C35.3 201 17.7 201 8.8 201L0 201Z" fill="#2d275e"></path><path d="M0 139L8.8 141C17.7 143 35.3 147 53 147.2C70.7 147.3 88.3 143.7 106 142C123.7 140.3 141.3 140.7 159 138.8C176.7 137 194.3 133 212 132.8C229.7 132.7 247.3 136.3 265 139.7C282.7 143 300.3 146 318 148C335.7 150 353.3 151 371 148.7C388.7 146.3 406.3 140.7 423.8 138.7C441.3 136.7 458.7 138.3 476.2 137.8C493.7 137.3 511.3 134.7 529 133.2C546.7 131.7 564.3 131.3 582 131.3C599.7 131.3 617.3 131.7 635 133.2C652.7 134.7 670.3 137.3 688 140C705.7 142.7 723.3 145.3 741 143.8C758.7 142.3 776.3 136.7 794 137.2C811.7 137.7 829.3 144.3 847 146.2C864.7 148 882.3 145 891.2 143.5L900 142L900 201L891.2 201C882.3 201 864.7 201 847 201C829.3 201 811.7 201 794 201C776.3 201 758.7 201 741 201C723.3 201 705.7 201 688 201C670.3 201 652.7 201 635 201C617.3 201 599.7 201 582 201C564.3 201 546.7 201 529 201C511.3 201 493.7 201 476.2 201C458.7 201 441.3 201 423.8 201C406.3 201 388.7 201 371 201C353.3 201 335.7 201 318 201C300.3 201 282.7 201 265 201C247.3 201 229.7 201 212 201C194.3 201 176.7 201 159 201C141.3 201 123.7 201 106 201C88.3 201 70.7 201 53 201C35.3 201 17.7 201 8.8 201L0 201Z" fill="#27254d"></path><path d="M0 169L8.8 169.3C17.7 169.7 35.3 170.3 53 168.8C70.7 167.3 88.3 163.7 106 162.5C123.7 161.3 141.3 162.7 159 164.3C176.7 166 194.3 168 212 168.8C229.7 169.7 247.3 169.3 265 167C282.7 164.7 300.3 160.3 318 158.2C335.7 156 353.3 156 371 159C388.7 162 406.3 168 423.8 171C441.3 174 458.7 174 476.2 173.3C493.7 172.7 511.3 171.3 529 168.5C546.7 165.7 564.3 161.3 582 161.7C599.7 162 617.3 167 635 167C652.7 167 670.3 162 688 160C705.7 158 723.3 159 741 160.8C758.7 162.7 776.3 165.3 794 167.2C811.7 169 829.3 170 847 169C864.7 168 882.3 165 891.2 163.5L900 162L900 201L891.2 201C882.3 201 864.7 201 847 201C829.3 201 811.7 201 794 201C776.3 201 758.7 201 741 201C723.3 201 705.7 201 688 201C670.3 201 652.7 201 635 201C617.3 201 599.7 201 582 201C564.3 201 546.7 201 529 201C511.3 201 493.7 201 476.2 201C458.7 201 441.3 201 423.8 201C406.3 201 388.7 201 371 201C353.3 201 335.7 201 318 201C300.3 201 282.7 201 265 201C247.3 201 229.7 201 212 201C194.3 201 176.7 201 159 201C141.3 201 123.7 201 106 201C88.3 201 70.7 201 53 201C35.3 201 17.7 201 8.8 201L0 201Z" fill="#22223b"></path></svg>