<svg id="visual" viewBox="0 0 900 200" width="900" height="200" xmlns="http://www.w3.org/2000/svg" xmlns:xlink="http://www.w3.org/1999/xlink" version="1.1"><path d="M0 68L8.8 67.3C17.7 66.7 35.3 65.3 53 67C70.7 68.7 88.3 73.3 106 75.8C123.7 78.3 141.3 78.7 159 79C176.7 79.3 194.3 79.7 212 78.2C229.7 76.7 247.3 73.3 265 68.5C282.7 63.7 300.3 57.3 318 56.8C335.7 56.3 353.3 61.7 371 62.7C388.7 63.7 406.3 60.3 423.8 61C441.3 61.7 458.7 66.3 476.2 67.7C493.7 69 511.3 67 529 68.3C546.7 69.7 564.3 74.3 582 72C599.7 69.7 617.3 60.3 635 55.5C652.7 50.7 670.3 50.3 688 49.5C705.7 48.7 723.3 47.3 741 47.3C758.7 47.3 776.3 48.7 794 52.3C811.7 56 829.3 62 847 63.3C864.7 64.7 882.3 61.3 891.2 59.7L900 58L900 201L891.2 201C882.3 201 864.7 201 847 201C829.3 201 811.7 201 794 201C776.3 201 758.7 201 741 201C723.3 201 705.7 201 688 201C670.3 201 652.7 201 635 201C617.3 201 599.7 201 582 201C564.3 201 546.7 201 529 201C511.3 201 493.7 201 476.2 201C458.7 201 441.3 201 423.8 201C406.3 201 388.7 201 371 201C353.3 201 335.7 201 318 201C300.3 201 282.7 201 265 201C247.3 201 229.7 201 212 201C194.3 201 176.7 201 159 201C141.3 201 123.7 201 106 201C88.3 201 70.7 201 53 201C35.3 201 17.7 201 8.8 201L0 201Z" fill="#422780"></path><path d="M0 97L8.8 95.2C17.7 93.3 35.3 89.7 53 90.7C70.7 91.7 88.3 97.3 106 100.3C123.7 103.3 141.3 103.7 159 99.7C176.7 95.7 194.3 87.3 212 82.5C229.7 77.7 247.3 76.3 265 80.3C282.7 84.3 300.3 93.7 318 98.7C335.7 103.7 353.3 104.3 371 104.3C388.7 104.3 406.3 103.7 423.8 101C441.3 98.3 458.7 93.7 476.2 90.7C493.7 87.7 511.3 86.3 529 83.8C546.7 81.3 564.3 77.7 582 76.2C599.7 74.7 617.3 75.3 635 78.2C652.7 81 670.3 86 688 87.3C705.7 88.7 723.3 86.3 741 88.7C758.7 91 776.3 98 794 96.8C811.7 95.7 829.3 86.3 847 82.7C864.7 79 882.3 81 891.2 82L900 83L900 201L891.2 201C882.3 201 864.7 201 847 201C829.3 201 811.7 201 794 201C776.3 201 758.7 201 741 201C723.3 201 705.7 201 688 201C670.3 201 652.7 201 635 201C617.3 201 599.7 201 582 201C564.3 201 546.7 201 529 201C511.3 201 493.7 201 476.2 201C458.7 201 441.3 201 423.8 201C406.3 201 388.7 201 371 201C353.3 201 335.7 201 318 201C300.3 201 282.7 201 265 201C247.3 201 229.7 201 212 201C194.3 201 176.7 201 159 201C141.3 201 123.7 201 106 201C88.3 201 70.7 201 53 201C35.3 201 17.7 201 8.8 201L0 201Z" fill="#36286f"></path><path d="M0 118L8.8 120C17.7 122 35.3 126 53 125.5C70.7 125 88.3 120 106 115.2C123.7 110.3 141.3 105.7 159 106.8C176.7 108 194.3 115 212 116C229.7 117 247.3 112 265 109.8C282.7 107.7 300.3 108.3 318 111C335.7 113.7 353.3 118.3 371 117.2C388.7 116 406.3 109 423.8 109.3C441.3 109.7 458.7 117.3 476.2 119.5C493.7 121.7 511.3 118.3 529 119C546.7 119.7 564.3 124.3 582 122.7C599.7 121 617.3 113 635 109.3C652.7 105.7 670.3 106.3 688 106.8C705.7 107.3 723.3 107.7 741 110C758.7 112.3 776.3 116.7 794 116C811.7 115.3 829.3 109.7 847 109.3C864.7 109 882.3 114 891.2 116.5L900 119L900 201L891.2 201C882.3 201 864.7 201 847 201C829.3 201 811.7 201 794 201C776.3 201 758.7 201 741 201C723.3 201 705.7 201 688 201C670.3 201 652.7 201 635 201C617.3 201 599.7 201 582 201C564.3 201 546.7 201 529 201C511.3 201 493.7 201 476.2 201C458.7 201 441.3 201 423.8 201C406.3 201 388.7 201 371 201C353.3 201 335.7 201 318 201C300.3 201 282.7 201 265 201C247.3 201 229.7 201 212 201C194.3 201 176.7 201 159 201C141.3 201 123.7 201 106 201C88.3 201 70.7 201 53 201C35.3 201 17.7 201 8.8 201L0 201Z" fill="#2d275e"></path><path d="M0 139L8.8 139.2C17.7 139.3 35.3 139.7 53 138.8C70.7 138 88.3 136 106 138C123.7 140 141.3 146 159 147C176.7 148 194.3 144 212 142.3C229.7 140.7 247.3 141.3 265 141C282.7 140.7 300.3 139.3 318 140.8C335.7 142.3 353.3 146.7 371 146.2C388.7 145.7 406.3 140.3 423.8 138.7C441.3 137 458.7 139 476.2 140.3C493.7 141.7 511.3 142.3 529 140.8C546.7 139.3 564.3 135.7 582 133.7C599.7 131.7 617.3 131.3 635 131.2C652.7 131 670.3 131 688 134.2C705.7 137.3 723.3 143.7 741 144.8C758.7 146 776.3 142 794 140.8C811.7 139.7 829.3 141.3 847 139.8C864.7 138.3 882.3 133.7 891.2 131.3L900 129L900 201L891.2 201C882.3 201 864.7 201 847 201C829.3 201 811.7 201 794 201C776.3 201 758.7 201 741 201C723.3 201 705.7 201 688 201C670.3 201 652.7 201 635 201C617.3 201 599.7 201 582 201C564.3 201 546.7 201 529 201C511.3 201 493.7 201 476.2 201C458.7 201 441.3 201 423.8 201C406.3 201 388.7 201 371 201C353.3 201 335.7 201 318 201C300.3 201 282.7 201 265 201C247.3 201 229.7 201 212 201C194.3 201 176.7 201 159 201C141.3 201 123.7 201 106 201C88.3 201 70.7 201 53 201C35.3 201 17.7 201 8.8 201L0 201Z" fill="#27254d"></path><path d="M0 169L8.8 169.2C17.7 169.3 35.3 169.7 53 170C70.7 170.3 88.3 170.7 106 168.3C123.7 166 141.3 161 159 159.7C176.7 158.3 194.3 160.7 212 161.8C229.7 163 247.3 163 265 163.8C282.7 164.7 300.3 166.3 318 167C335.7 167.7 353.3 167.3 371 166.3C388.7 165.3 406.3 163.7 423.8 163.5C441.3 163.3 458.7 164.7 476.2 165C493.7 165.3 511.3 164.7 529 165.2C546.7 165.7 564.3 167.3 582 166C599.7 164.7 617.3 160.3 635 159C652.7 157.7 670.3 159.3 688 162.3C705.7 165.3 723.3 169.7 741 170.5C758.7 171.3 776.3 168.7 794 168.7C811.7 168.7 829.3 171.3 847 172.7C864.7 174 882.3 174 891.2 174L900 174L900 201L891.2 201C882.3 201 864.7 201 847 201C829.3 201 811.7 201 794 201C776.3 201 758.7 201 741 201C723.3 201 705.7 201 688 201C670.3 201 652.7 201 635 201C617.3 201 599.7 201 582 201C564.3 201 546.7 201 529 201C511.3 201 493.7 201 476.2 201C458.7 201 441.3 201 423.8 201C406.3 201 388.7 201 371 201C353.3 201 335.7 201 318 201C300.3 201 282.7 201 265 201C247.3 201 229.7 201 212 201C194.3 201 176.7 201 159 201C141.3 201 123.7 201 106 201C88.3 201 70.7 201 53 201C35.3 201 17.7 201 8.8 201L0 201Z" fill="#22223b"></path></svg>