<svg width="58" height="58" viewBox="0 0 58 58" fill="none" xmlns="http://www.w3.org/2000/svg">
<path d="M27.9926 57.4419C27.9926 57.4419 27.9927 57.4419 27.9927 57.442L29.0001 58L30.0075 57.442C30.0075 57.442 30.0075 57.442 30.0075 57.4419L45.1108 49.0771L54.7843 43.7195V42.494V13.1364V11.8013L53.5703 11.2457L50.6894 9.9271L29 0L7.31061 9.9271L4.42971 11.2457L3.2157 11.8013V13.1364V42.494V43.7195L12.8893 49.0771L27.9926 57.4419ZM35.8599 20.089L29 23.8883L22.1402 20.089L9.90583 13.313L29 4.57372L48.0942 13.313L35.8599 20.089ZM31.0794 52.0942V27.4907L50.6255 16.6652V41.2687L31.0794 52.0942ZM26.9206 27.4907V52.0942L7.37458 41.2686V16.6651L26.9206 27.4907Z" fill="#EDF2F4"/>
</svg>
